<svg version="1.1" xmlns="http://www.w3.org/2000/svg" xmlns:xlink="http://www.w3.org/1999/xlink" width="24px" height="24px" viewBox="0,0,256,256"><g fill="#000000" fill-rule="nonzero" stroke="none" stroke-width="1" stroke-linecap="butt" stroke-linejoin="miter" stroke-miterlimit="10" stroke-dasharray="" stroke-dashoffset="0" font-family="none" font-weight="none" font-size="none" text-anchor="none" style="mix-blend-mode: normal"><g transform="translate(2.66667,2.66667) scale(10.66667,10.66667)"><path d="M9.5,3c3.58985,0 6.5,2.91015 6.5,6.5c0,1.61 -0.59,3.09 -1.56,4.23l0.27,0.27h0.79l5,5l-1.5,1.5l-5,-5v-0.79l-0.27,-0.27c-1.14,0.97 -2.62,1.56 -4.23,1.56c-3.58985,0 -6.5,-2.91015 -6.5,-6.5c0,-3.58985 2.91015,-6.5 6.5,-6.5M9.5,5c-2.5,0 -4.5,2 -4.5,4.5c0,2.5 2,4.5 4.5,4.5c2.5,0 4.5,-2 4.5,-4.5c0,-2.5 -2,-4.5 -4.5,-4.5z"></path></g></g></svg>